<svg xmlns="http://www.w3.org/2000/svg" xmlns:xlink="http://www.w3.org/1999/xlink" width="900" zoomAndPan="magnify" viewBox="0 0 675 675.000002" height="900" preserveAspectRatio="xMidYMid meet" version="1.0"><defs><clipPath id="14c7238f87"><path d="M 58.835938 25.644531 L 616 25.644531 L 616 648.71875 L 58.835938 648.71875 Z M 58.835938 25.644531 " clip-rule="nonzero"/></clipPath></defs><g clip-path="url(#14c7238f87)"><path fill="#0277bd" d="M 615.929688 25.644531 L 58.914062 25.644531 L 108.0625 583.132812 L 337.421875 648.71875 L 566.78125 583.132812 Z M 615.929688 25.644531 " fill-opacity="1" fill-rule="nonzero"/></g><path fill="#039be5" d="M 337.421875 74.832031 L 337.421875 597.890625 L 520.910156 545.421875 L 561.867188 74.832031 Z M 337.421875 74.832031 " fill-opacity="1" fill-rule="nonzero"/><path fill="#ffffff" d="M 486.503906 156.816406 L 337.421875 156.816406 L 337.421875 222.40625 L 417.699219 222.40625 L 412.78125 287.992188 L 337.421875 287.992188 L 337.421875 353.578125 L 409.507812 353.578125 L 404.589844 427.363281 L 337.421875 450.320312 L 337.421875 519.1875 L 466.847656 476.554688 L 478.3125 287.992188 Z M 486.503906 156.816406 " fill-opacity="1" fill-rule="nonzero"/><path fill="#eeeeee" d="M 337.421875 156.816406 L 337.421875 222.40625 L 191.617188 222.40625 L 186.703125 156.816406 Z M 262.0625 287.992188 L 265.339844 353.578125 L 337.421875 353.578125 L 337.421875 287.992188 Z M 268.613281 386.371094 L 203.085938 386.371094 L 208 476.554688 L 337.421875 519.1875 L 337.421875 450.320312 L 270.253906 427.363281 Z M 268.613281 386.371094 " fill-opacity="1" fill-rule="nonzero"/></svg>