<svg xmlns="http://www.w3.org/2000/svg" xmlns:xlink="http://www.w3.org/1999/xlink" width="900" zoomAndPan="magnify" viewBox="0 0 675 675.000002" height="900" preserveAspectRatio="xMidYMid meet" version="1.0"><defs><clipPath id="0dbb7c261d"><path d="M 104.417969 40.253906 L 412 40.253906 L 412 500 L 104.417969 500 Z M 104.417969 40.253906 " clip-rule="nonzero"/></clipPath><clipPath id="b6a70166e4"><path d="M 377 194 L 570 194 L 570 634.121094 L 377 634.121094 Z M 377 194 " clip-rule="nonzero"/></clipPath><clipPath id="8ea97b55c9"><path d="M 463 40.253906 L 561 40.253906 L 561 140 L 463 140 Z M 463 40.253906 " clip-rule="nonzero"/></clipPath></defs><g clip-path="url(#0dbb7c261d)"><path fill="#2ba977" d="M 313.957031 40.253906 L 411.0625 40.253906 L 411.0625 485.910156 C 361.324219 495.328125 324.710938 499.03125 285.097656 499.03125 C 166.503906 498.921875 104.769531 445.867188 104.769531 343.957031 C 104.769531 245.789062 170.25 182.066406 271.726562 182.066406 C 287.476562 182.066406 299.46875 183.308594 313.957031 187.023438 Z M 317.367188 267.34375 C 305.992188 263.621094 296.625 262.378906 284.625 262.378906 C 235.515625 262.378906 207.148438 292.382812 207.148438 344.945312 C 207.148438 396.136719 234.265625 424.40625 284.003906 424.40625 C 294.75 424.40625 303.496094 423.785156 317.367188 421.925781 Z M 317.367188 267.34375 " fill-opacity="1" fill-rule="nonzero"/></g><g clip-path="url(#b6a70166e4)"><path fill="#2ba977" d="M 569.859375 194.03125 L 569.859375 417.164062 C 569.859375 494.015625 564.097656 530.972656 547.242188 562.820312 C 531.492188 593.460938 510.734375 612.769531 467.871094 634.105469 L 377.78125 591.582031 C 420.648438 571.636719 441.386719 554.003906 454.636719 527.105469 C 468.507812 499.601562 472.882812 467.753906 472.882812 383.945312 L 472.882812 194.03125 L 569.859375 194.035156 Z M 569.859375 194.03125 " fill-opacity="1" fill-rule="nonzero"/></g><g clip-path="url(#8ea97b55c9)"><path fill="#2ba977" d="M 463.09375 40.253906 L 560.199219 40.253906 L 560.199219 139.050781 L 463.09375 139.050781 Z M 463.09375 40.253906 " fill-opacity="1" fill-rule="nonzero"/></g></svg>