<svg xmlns="http://www.w3.org/2000/svg" xmlns:xlink="http://www.w3.org/1999/xlink" width="40" zoomAndPan="magnify" viewBox="0 0 30 30.000001" height="40" preserveAspectRatio="xMidYMid meet" version="1.0"><defs><clipPath id="e8e49fc114"><path d="M 1 1 L 29 1 L 29 28.453125 L 1 28.453125 Z M 1 1 " clip-rule="nonzero"/></clipPath></defs><g clip-path="url(#e8e49fc114)"><path fill="#ffffff" d="M 13.203125 1.660156 C 7.050781 2.339844 2.035156 7.308594 1.292969 13.453125 C 1.195312 14.226562 1.164062 15 1.203125 15.78125 C 1.238281 16.558594 1.34375 17.328125 1.511719 18.089844 C 1.683594 18.851562 1.914062 19.589844 2.210938 20.3125 C 2.507812 21.03125 2.863281 21.722656 3.277344 22.382812 C 3.695312 23.042969 4.164062 23.660156 4.683594 24.238281 C 5.207031 24.820312 5.773438 25.347656 6.386719 25.832031 C 7 26.3125 7.648438 26.738281 8.332031 27.109375 C 9.019531 27.480469 9.730469 27.789062 10.472656 28.035156 C 11.148438 28.144531 11.367188 27.722656 11.367188 27.355469 L 11.367188 25.0625 C 7.609375 25.878906 6.808594 23.246094 6.808594 23.246094 C 6.183594 21.671875 5.300781 21.25 5.300781 21.25 C 4.066406 20.40625 5.398438 20.4375 5.398438 20.4375 C 6.753906 20.53125 7.472656 21.832031 7.472656 21.832031 C 8.652344 23.898438 10.648438 23.285156 11.421875 22.960938 C 11.542969 22.078125 11.902344 21.480469 12.277344 21.140625 C 9.257812 20.800781 6.101562 19.632812 6.101562 14.464844 C 6.101562 12.957031 6.617188 11.75 7.5 10.785156 C 7.363281 10.449219 6.886719 9.035156 7.632812 7.203125 C 7.632812 7.203125 8.773438 6.835938 11.367188 8.589844 C 13.628906 7.980469 15.890625 7.980469 18.152344 8.589844 C 20.746094 6.835938 21.886719 7.203125 21.886719 7.203125 C 22.628906 9.035156 22.15625 10.449219 22.019531 10.785156 C 22.902344 11.746094 23.417969 12.957031 23.417969 14.464844 C 23.417969 19.648438 20.242188 20.789062 17.214844 21.128906 C 17.703125 21.546875 18.152344 22.375 18.152344 23.636719 L 18.152344 27.355469 C 18.152344 27.722656 18.371094 28.15625 19.0625 28.035156 C 19.851562 27.769531 20.609375 27.4375 21.335938 27.035156 C 22.066406 26.628906 22.75 26.164062 23.390625 25.632812 C 24.03125 25.105469 24.621094 24.519531 25.15625 23.882812 C 25.691406 23.246094 26.164062 22.5625 26.570312 21.839844 C 26.980469 21.117188 27.320312 20.359375 27.59375 19.574219 C 27.863281 18.785156 28.058594 17.980469 28.183594 17.15625 C 28.304688 16.335938 28.351562 15.507812 28.320312 14.675781 C 28.292969 13.84375 28.1875 13.023438 28.007812 12.210938 C 27.828125 11.398438 27.574219 10.609375 27.25 9.84375 C 26.921875 9.078125 26.53125 8.347656 26.070312 7.652344 C 25.613281 6.960938 25.09375 6.3125 24.515625 5.714844 C 23.9375 5.117188 23.308594 4.578125 22.628906 4.09375 C 21.953125 3.609375 21.238281 3.191406 20.484375 2.84375 C 19.730469 2.492188 18.949219 2.210938 18.144531 2.003906 C 17.335938 1.792969 16.519531 1.660156 15.691406 1.605469 C 14.859375 1.546875 14.03125 1.5625 13.203125 1.660156 Z M 13.203125 1.660156 " fill-opacity="1" fill-rule="nonzero"/></g></svg>