<svg xmlns="http://www.w3.org/2000/svg" xmlns:xlink="http://www.w3.org/1999/xlink" width="900" zoomAndPan="magnify" viewBox="0 0 675 675.000002" height="900" preserveAspectRatio="xMidYMid meet" version="1.0"><defs><clipPath id="eecca80a75"><path d="M 70 33 L 605.75 33 L 605.75 641 L 70 641 Z M 70 33 " clip-rule="nonzero"/></clipPath></defs><g clip-path="url(#eecca80a75)"><path fill="#e44d26" d="M 118.738281 579.8125 L 70.023438 33.648438 L 605.265625 33.648438 L 556.503906 579.710938 L 337.316406 640.46875 Z M 118.738281 579.8125 " fill-opacity="1" fill-rule="nonzero"/></g><path fill="#f16529" d="M 337.644531 594.046875 L 514.769531 544.972656 L 556.425781 78.300781 L 337.644531 78.300781 Z M 337.644531 594.046875 " fill-opacity="1" fill-rule="nonzero"/><path fill="#ebebeb" d="M 337.644531 280.878906 L 248.96875 280.878906 L 242.847656 212.28125 L 337.644531 212.28125 L 337.644531 145.304688 L 169.625 145.304688 L 171.21875 163.257812 L 187.683594 347.855469 L 337.644531 347.855469 Z M 337.644531 454.832031 L 337.339844 454.910156 L 262.726562 434.757812 L 257.949219 381.332031 L 190.695312 381.332031 L 200.078125 486.515625 L 337.339844 524.59375 L 337.644531 524.515625 Z M 337.644531 454.832031 " fill-opacity="1" fill-rule="nonzero"/><path fill="#ffffff" d="M 337.417969 280.878906 L 337.417969 347.855469 L 419.921875 347.855469 L 412.132812 434.734375 L 337.390625 454.882812 L 337.390625 524.566406 L 474.757812 486.515625 L 475.769531 475.1875 L 491.527344 298.828125 L 493.171875 280.851562 L 475.109375 280.851562 Z M 337.417969 145.304688 L 337.417969 212.28125 L 499.265625 212.28125 L 500.605469 197.210938 L 503.667969 163.257812 L 505.261719 145.277344 Z M 337.417969 145.304688 " fill-opacity="1" fill-rule="nonzero"/></svg>