<svg xmlns="http://www.w3.org/2000/svg" xmlns:xlink="http://www.w3.org/1999/xlink" width="900" zoomAndPan="magnify" viewBox="0 0 675 675.000002" height="900" preserveAspectRatio="xMidYMid meet" version="1.0"><defs><clipPath id="1d6ce3fdf0"><path d="M 36.890625 36.390625 L 638.25 36.390625 L 638.25 637.75 L 36.890625 637.75 Z M 36.890625 36.390625 " clip-rule="nonzero"/></clipPath></defs><g clip-path="url(#1d6ce3fdf0)"><path fill="#ffd600" d="M 36.890625 36.390625 L 638.25 36.390625 L 638.25 637.75 L 36.890625 637.75 Z M 36.890625 36.390625 " fill-opacity="1" fill-rule="nonzero"/></g><path fill="#000001" d="M 430.078125 486.527344 C 441.640625 505.300781 454.199219 523.292969 480.8125 523.292969 C 503.160156 523.292969 514.886719 512.183594 514.886719 496.816406 C 514.886719 478.425781 502.761719 471.894531 478.171875 461.183594 L 464.691406 455.4375 C 425.785156 438.933594 399.910156 418.253906 399.910156 374.574219 C 399.910156 334.316406 430.730469 303.679688 478.890625 303.679688 C 513.183594 303.679688 537.824219 315.554688 555.597656 346.660156 L 513.601562 373.503906 C 504.363281 357 494.375 350.5 478.890625 350.5 C 463.085938 350.5 453.082031 360.472656 453.082031 373.503906 C 453.082031 389.605469 463.105469 396.121094 486.238281 406.09375 L 499.71875 411.839844 C 545.574219 431.367188 571.433594 451.3125 571.433594 496.148438 C 571.433594 544.457031 533.28125 570.933594 482.0625 570.933594 C 431.96875 570.933594 403.519531 545.792969 387.683594 514.671875 Z M 236.542969 487.894531 C 244.996094 503.03125 257.839844 514.671875 276.316406 514.671875 C 293.988281 514.671875 304.160156 507.691406 304.160156 480.546875 L 304.160156 303.664062 L 359.835938 303.664062 L 359.835938 489.097656 C 359.835938 545.34375 327.214844 570.933594 279.574219 570.933594 C 236.527344 570.933594 205.457031 541.765625 192.792969 514.671875 Z M 236.542969 487.894531 " fill-opacity="1" fill-rule="nonzero"/></svg>