<svg xmlns="http://www.w3.org/2000/svg" xmlns:xlink="http://www.w3.org/1999/xlink" width="40" zoomAndPan="magnify" viewBox="0 0 30 30.000001" height="40" preserveAspectRatio="xMidYMid meet" version="1.0"><defs><clipPath id="8e888ebddf"><path d="M 2.117188 1.632812 L 28 1.632812 L 28 27.761719 L 2.117188 27.761719 Z M 2.117188 1.632812 " clip-rule="nonzero"/></clipPath></defs><g clip-path="url(#8e888ebddf)"><path fill="#ffffff" d="M 25.730469 1.632812 L 4.28125 1.632812 C 3.097656 1.632812 2.144531 2.601562 2.144531 3.773438 L 2.144531 25.257812 C 2.144531 26.445312 3.109375 27.398438 4.28125 27.398438 L 25.71875 27.398438 C 26.902344 27.398438 27.855469 26.433594 27.855469 25.257812 L 27.855469 3.773438 C 27.871094 2.601562 26.917969 1.632812 25.730469 1.632812 Z M 9.761719 22.886719 L 5.957031 22.886719 L 5.957031 11.46875 L 9.761719 11.46875 Z M 7.851562 10.089844 C 6.652344 10.089844 5.6875 9.121094 5.6875 7.921875 C 5.6875 6.722656 6.652344 5.757812 7.851562 5.757812 C 9.050781 5.757812 10.019531 6.722656 10.019531 7.921875 C 10.019531 9.121094 9.050781 10.089844 7.851562 10.089844 Z M 24.066406 22.886719 L 20.253906 22.886719 L 20.164062 16.109375 C 20.164062 16.109375 20.253906 14.304688 18.28125 14.316406 C 16.308594 14.328125 16.039062 16.109375 16.039062 16.109375 L 16.039062 22.886719 L 12.195312 22.886719 L 12.195312 11.46875 L 15.882812 11.46875 L 15.882812 13.039062 C 15.882812 13.039062 16.039062 12.523438 16.886719 11.917969 C 17.738281 11.3125 19.144531 11.183594 19.75 11.210938 C 20.355469 11.234375 21.179688 11.132812 22.558594 12.085938 C 24.042969 13.105469 24.082031 15.773438 24.082031 15.773438 Z M 24.066406 22.886719 " fill-opacity="1" fill-rule="nonzero"/></g></svg>