<svg xmlns="http://www.w3.org/2000/svg" xmlns:xlink="http://www.w3.org/1999/xlink" width="40" zoomAndPan="magnify" viewBox="0 0 30 30.000001" height="40" preserveAspectRatio="xMidYMid meet" version="1.0"><defs><clipPath id="30166a13c9"><path d="M 1.933594 1.453125 L 28.066406 1.453125 L 28.066406 27.582031 L 1.933594 27.582031 Z M 1.933594 1.453125 " clip-rule="nonzero"/></clipPath></defs><g clip-path="url(#30166a13c9)"><path fill="#ffffff" d="M 7.292969 1.453125 L 22.707031 1.453125 C 25.664062 1.460938 28.054688 3.855469 28.066406 6.808594 L 28.066406 22.222656 C 28.054688 25.179688 25.664062 27.574219 22.707031 27.582031 L 7.292969 27.582031 C 4.335938 27.574219 1.945312 25.179688 1.9375 22.222656 L 1.933594 6.808594 C 1.945312 3.855469 4.335938 1.460938 7.292969 1.453125 Z M 7.292969 1.453125 " fill-opacity="1" fill-rule="evenodd"/></g><path fill="#000000" d="M 16.039062 14.515625 C 16.039062 17.058594 13.992188 19.121094 11.464844 19.121094 C 8.941406 19.121094 6.894531 17.058594 6.894531 14.515625 C 6.894531 11.972656 8.941406 9.914062 11.464844 9.914062 C 13.992188 9.914062 16.039062 11.972656 16.039062 14.515625 Z M 21.054688 14.515625 C 21.054688 16.910156 20.03125 18.847656 18.769531 18.847656 C 17.503906 18.847656 16.480469 16.910156 16.480469 14.515625 C 16.480469 12.125 17.503906 10.183594 18.769531 10.183594 C 20.03125 10.183594 21.054688 12.125 21.054688 14.515625 Z M 23.105469 14.515625 C 23.105469 16.660156 22.746094 18.398438 22.300781 18.398438 C 21.855469 18.398438 21.496094 16.660156 21.496094 14.515625 C 21.496094 12.371094 21.855469 10.632812 22.300781 10.632812 C 22.746094 10.632812 23.105469 12.371094 23.105469 14.515625 Z M 23.105469 14.515625 " fill-opacity="1" fill-rule="nonzero"/></svg>