<svg xmlns="http://www.w3.org/2000/svg" xmlns:xlink="http://www.w3.org/1999/xlink" width="900" zoomAndPan="magnify" viewBox="0 0 675 675.000002" height="900" preserveAspectRatio="xMidYMid meet" version="1.0"><path fill="#01ec64" d="M 390.746094 98.695312 C 364.992188 68.152344 342.8125 37.132812 338.28125 30.691406 C 338.175781 30.578125 338.046875 30.488281 337.902344 30.429688 C 337.757812 30.367188 337.605469 30.335938 337.449219 30.335938 C 337.292969 30.335938 337.136719 30.367188 336.992188 30.429688 C 336.851562 30.488281 336.722656 30.578125 336.613281 30.691406 C 332.082031 37.136719 309.902344 68.152344 284.148438 98.695312 C 63.082031 380.484375 318.964844 570.652344 318.964844 570.652344 L 321.113281 572.082031 C 323.019531 601.429688 327.789062 643.667969 327.789062 643.667969 L 346.867188 643.667969 C 346.867188 643.667969 351.636719 601.671875 353.542969 572.082031 L 355.691406 570.414062 C 355.929688 570.65625 611.8125 380.484375 390.746094 98.695312 Z M 337.328125 566.355469 C 337.328125 566.355469 325.882812 556.578125 322.78125 551.566406 L 322.78125 551.085938 L 336.613281 244.242188 C 336.613281 243.289062 338.042969 243.289062 338.042969 244.242188 L 351.875 551.085938 L 351.875 551.566406 C 348.773438 556.578125 337.328125 566.355469 337.328125 566.355469 Z M 337.328125 566.355469 " fill-opacity="1" fill-rule="nonzero"/></svg>