<svg xmlns="http://www.w3.org/2000/svg" xmlns:xlink="http://www.w3.org/1999/xlink" width="1080" zoomAndPan="magnify" viewBox="0 0 810 809.999993" height="1080" preserveAspectRatio="xMidYMid meet" version="1.0"><defs><clipPath id="38bef1ca1b"><path d="M 78.597656 99.441406 L 731 99.441406 L 731 710.558594 L 78.597656 710.558594 Z M 78.597656 99.441406 " clip-rule="nonzero"/></clipPath><clipPath id="1f78b2a997"><path d="M 116.097656 99.441406 L 693.902344 99.441406 C 714.613281 99.441406 731.402344 116.230469 731.402344 136.941406 L 731.402344 673.058594 C 731.402344 693.769531 714.613281 710.558594 693.902344 710.558594 L 116.097656 710.558594 C 95.386719 710.558594 78.597656 693.769531 78.597656 673.058594 L 78.597656 136.941406 C 78.597656 116.230469 95.386719 99.441406 116.097656 99.441406 Z M 116.097656 99.441406 " clip-rule="nonzero"/></clipPath><clipPath id="c8fa76b701"><path d="M 210.429688 186.222656 L 599.5625 186.222656 L 599.5625 623.472656 L 210.429688 623.472656 Z M 210.429688 186.222656 " clip-rule="nonzero"/></clipPath></defs><g clip-path="url(#38bef1ca1b)"><g clip-path="url(#1f78b2a997)"><path fill="#000000" d="M 78.597656 99.441406 L 730.292969 99.441406 L 730.292969 710.558594 L 78.597656 710.558594 Z M 78.597656 99.441406 " fill-opacity="1" fill-rule="nonzero"/></g></g><g clip-path="url(#c8fa76b701)"><path fill="#ffffff" d="M 594.460938 295.613281 C 583.964844 277.429688 560.714844 271.199219 542.53125 281.699219 C 528.957031 289.53125 453.203125 344.21875 419.996094 379.019531 C 433.53125 332.863281 443.011719 239.910156 443.011719 224.242188 C 443.011719 203.246094 425.992188 186.226562 404.996094 186.226562 C 384 186.226562 366.980469 203.246094 366.980469 224.242188 C 366.980469 239.910156 376.457031 332.863281 389.996094 379.019531 C 356.789062 344.21875 281.03125 289.53125 267.460938 281.699219 C 249.277344 271.199219 226.027344 277.429688 215.527344 295.613281 C 205.027344 313.796875 211.261719 337.050781 229.445312 347.546875 C 243.011719 355.382812 328.25 393.648438 374.996094 405 C 328.25 416.359375 243.011719 454.625 229.445312 462.460938 C 211.261719 472.957031 205.027344 496.207031 215.527344 514.390625 C 226.027344 532.574219 249.277344 538.804688 267.460938 528.308594 C 281.03125 520.472656 356.789062 465.789062 389.996094 430.984375 C 376.457031 477.144531 366.980469 570.09375 366.980469 585.765625 C 366.980469 606.757812 384 623.78125 404.996094 623.78125 C 425.992188 623.78125 443.011719 606.757812 443.011719 585.765625 C 443.011719 570.09375 433.53125 477.144531 419.996094 430.984375 C 453.203125 465.789062 528.957031 520.472656 542.53125 528.308594 C 560.714844 538.804688 583.964844 532.574219 594.460938 514.390625 C 604.960938 496.207031 598.734375 472.957031 580.546875 462.460938 C 566.980469 454.625 481.738281 416.359375 434.996094 405 C 481.738281 393.648438 566.980469 355.382812 580.546875 347.546875 C 598.734375 337.050781 604.960938 313.796875 594.460938 295.613281 " fill-opacity="1" fill-rule="nonzero"/></g></svg>