<svg xmlns="http://www.w3.org/2000/svg" xmlns:xlink="http://www.w3.org/1999/xlink" width="900" zoomAndPan="magnify" viewBox="0 0 675 675.000002" height="900" preserveAspectRatio="xMidYMid meet" version="1.0"><defs><clipPath id="9eb464ea0a"><path d="M 30.324219 29.824219 L 644.414062 29.824219 L 644.414062 643.914062 L 30.324219 643.914062 Z M 30.324219 29.824219 " clip-rule="nonzero"/></clipPath><clipPath id="5a369b599b"><path d="M 30.324219 241 L 152 241 L 152 387 L 30.324219 387 Z M 30.324219 241 " clip-rule="nonzero"/></clipPath></defs><g clip-path="url(#9eb464ea0a)"><path fill="#f2f2f2" d="M 644.414062 336.867188 C 644.414062 506.441406 506.941406 643.914062 337.371094 643.914062 C 180.914062 643.914062 51.792969 526.902344 32.753906 375.601562 C 31.148438 362.921875 30.324219 349.988281 30.324219 336.867188 C 30.324219 312.828125 33.082031 289.429688 38.304688 266.984375 C 69.9375 131.085938 191.832031 29.820312 337.371094 29.820312 C 482.542969 29.820312 604.195312 130.582031 636.183594 265.988281 C 640.375 283.691406 643.023438 301.988281 643.988281 320.726562 C 644.273438 326.082031 644.414062 331.449219 644.414062 336.867188 Z M 644.414062 336.867188 " fill-opacity="1" fill-rule="nonzero"/></g><path fill="#3b8739" d="M 322.007812 361.523438 L 322.007812 281.695312 L 252.875 241.777344 L 183.738281 281.695312 L 183.738281 361.523438 L 252.875 401.441406 Z M 322.007812 361.523438 " fill-opacity="1" fill-rule="nonzero"/><path fill="#333333" d="M 594.285156 349.414062 L 639.339844 375.433594 L 594.285156 401.445312 L 525.15625 361.53125 L 525.15625 281.699219 L 594.285156 241.785156 L 636.183594 265.988281 C 640.375 283.691406 643.023438 301.988281 643.988281 320.722656 L 618.371094 335.515625 L 618.371094 307.703125 L 594.285156 293.804688 L 570.199219 307.703125 L 570.199219 335.515625 Z M 594.285156 349.414062 " fill-opacity="1" fill-rule="nonzero"/><path fill="#66a060" d="M 607.703125 329.359375 L 607.703125 313.863281 L 594.285156 306.117188 L 580.863281 313.863281 L 580.863281 329.359375 L 594.285156 337.109375 Z M 607.703125 329.359375 " fill-opacity="1" fill-rule="nonzero"/><g clip-path="url(#5a369b599b)"><path fill="#333333" d="M 151.082031 281.699219 L 151.082031 386.96875 L 104.980469 360.667969 L 104.980469 306.703125 L 81.960938 293.40625 L 58.9375 306.703125 L 58.9375 360.664062 L 32.753906 375.601562 C 31.148438 362.921875 30.324219 349.988281 30.324219 336.867188 C 30.324219 312.828125 33.082031 289.429688 38.304688 266.984375 L 81.960938 241.785156 Z M 151.082031 281.699219 " fill-opacity="1" fill-rule="nonzero"/></g><path fill="#6da75d" d="M 252.867188 241.777344 L 322.003906 361.519531 L 252.875 401.429688 L 183.738281 281.6875 Z M 252.867188 241.777344 " fill-opacity="1" fill-rule="nonzero"/><path fill="#55a344" d="M 183.738281 361.523438 L 207.480469 322.8125 L 183.738281 281.695312 Z M 183.738281 361.523438 " fill-opacity="1" fill-rule="nonzero"/><path fill="#639d57" d="M 298.964844 321.605469 L 322.007812 281.695312 L 252.875 241.777344 Z M 298.964844 321.605469 " fill-opacity="1" fill-rule="nonzero"/><path fill="#333333" d="M 445.976562 149.257812 L 445.976562 255.164062 L 422.804688 241.785156 L 353.664062 281.699219 L 353.664062 361.53125 L 422.804688 401.445312 L 491.933594 361.53125 L 491.933594 173.855469 Z M 445.847656 334.910156 L 422.804688 348.222656 L 399.753906 334.910156 L 399.753906 308.304688 L 422.804688 294.996094 L 445.847656 308.304688 Z M 445.847656 334.910156 " fill-opacity="1" fill-rule="nonzero"/><path fill="#66a060" d="M 368.730469 460.0625 C 368.730469 460.0625 367.371094 448.398438 354.890625 448.398438 C 342.40625 448.398438 333.863281 450.027344 333.863281 456.941406 C 333.863281 463.863281 358.148438 463.863281 367.378906 466.574219 C 376.601562 469.292969 384.742188 476.34375 380.671875 488.832031 C 376.601562 501.316406 364.117188 502.667969 344.855469 502.667969 C 325.585938 502.667969 321.242188 486.65625 321.242188 480.414062 L 332.09375 480.414062 C 332.09375 480.414062 330.738281 490.1875 343.496094 491.816406 C 356.246094 493.4375 368.445312 494.359375 370.089844 484.492188 C 372.257812 471.460938 328.835938 477.976562 325.035156 465.222656 C 321.828125 454.453125 323.683594 440.257812 345.394531 438.085938 C 367.101562 435.910156 379.042969 445.5 379.042969 459.792969 Z M 368.730469 460.0625 " fill-opacity="1" fill-rule="nonzero"/><path fill="#66a060" d="M 263.871094 510.9375 L 287.871094 524.789062 C 299.929688 531.753906 314.996094 523.050781 314.996094 509.128906 L 314.996094 440.167969 L 305.21875 440.167969 L 305.21875 506.40625 C 305.21875 514.011719 296.988281 518.761719 290.402344 514.960938 L 273.652344 505.292969 L 273.652344 434.601562 L 334.875 399.257812 L 396.09375 434.601562 L 396.09375 505.292969 L 334.875 540.628906 L 317.234375 530.453125 L 305.722656 535.097656 L 334.875 551.925781 L 405.871094 510.933594 L 405.871094 428.953125 L 334.875 387.960938 L 263.871094 428.953125 Z M 263.871094 510.9375 " fill-opacity="1" fill-rule="nonzero"/></svg>