<svg xmlns="http://www.w3.org/2000/svg" xmlns:xlink="http://www.w3.org/1999/xlink" width="900" zoomAndPan="magnify" viewBox="0 0 675 675.000002" height="900" preserveAspectRatio="xMidYMid meet" version="1.0"><path fill="#000000" d="M 486.019531 224.460938 L 486.042969 224.460938 L 486.042969 224.363281 Z M 486.019531 224.460938 " fill-opacity="1" fill-rule="nonzero"/><path fill="#f2bb30" d="M 545.269531 473.925781 C 585.265625 473.925781 600.054688 446.027344 613.957031 404.207031 C 628.359375 361.136719 627.734375 319.699219 613.957031 264.53125 C 604.039062 224.796875 585.289062 194.8125 545.269531 194.8125 L 493.726562 194.8125 L 493.726562 255.816406 C 493.726562 303.132812 453.585938 343.011719 407.828125 343.011719 L 270.453125 343.011719 C 232.882812 343.011719 201.769531 375.15625 201.769531 412.847656 L 201.769531 543.785156 C 201.769531 581.070312 234.179688 602.941406 270.453125 613.625 C 313.910156 626.347656 355.730469 628.652344 407.800781 613.625 C 442.398438 603.589844 476.488281 583.375 476.488281 543.785156 L 476.488281 491.425781 L 339.238281 491.425781 L 339.238281 473.949219 L 545.269531 473.949219 Z M 416.421875 526.285156 C 430.679688 526.285156 442.277344 538 442.277344 552.40625 C 442.277344 566.953125 430.707031 578.644531 416.421875 578.644531 C 402.257812 578.644531 390.566406 566.808594 390.566406 552.40625 C 390.707031 537.855469 402.304688 526.285156 416.421875 526.285156 Z M 416.421875 526.285156 " fill-opacity="1" fill-rule="nonzero"/><path fill="#35668f" d="M 131.019531 473.949219 L 178.21875 473.949219 L 178.21875 411.167969 C 178.21875 365.769531 217.445312 325.75 264.117188 325.75 L 401.464844 325.75 C 439.660156 325.75 470.148438 294.25 470.148438 255.910156 L 470.148438 124.878906 C 470.148438 87.59375 438.773438 59.648438 401.464844 53.382812 C 355.417969 45.773438 305.386719 46.203125 264.117188 53.527344 L 264.140625 53.503906 C 205.992188 63.777344 195.480469 85.242188 195.480469 124.972656 L 195.480469 177.332031 L 332.96875 177.332031 L 332.96875 194.835938 L 143.886719 194.835938 C 103.890625 194.835938 68.886719 218.890625 57.988281 264.554688 C 45.382812 316.914062 44.878906 349.566406 57.988281 404.230469 C 67.734375 444.875 91.046875 473.949219 131.019531 473.949219 Z M 255.523438 142.355469 C 241.261719 142.355469 229.664062 130.640625 229.664062 116.234375 C 229.832031 101.6875 241.261719 89.992188 255.523438 89.992188 C 269.6875 89.992188 281.378906 101.804688 281.378906 116.234375 C 281.378906 130.664062 269.804688 142.355469 255.523438 142.355469 Z M 255.523438 142.355469 " fill-opacity="1" fill-rule="nonzero"/></svg>