<svg xmlns="http://www.w3.org/2000/svg" xmlns:xlink="http://www.w3.org/1999/xlink" width="900" zoomAndPan="magnify" viewBox="0 0 675 675.000002" height="900" preserveAspectRatio="xMidYMid meet" version="1.0"><defs><clipPath id="9070cf07bb"><path d="M 23.789062 58 L 651.359375 58 L 651.359375 616 L 23.789062 616 Z M 23.789062 58 " clip-rule="nonzero"/></clipPath></defs><g clip-path="url(#9070cf07bb)"><path fill="#00d8ff" d="M 539.554688 238.8125 C 532.875 236.523438 526.144531 234.402344 519.363281 232.449219 C 520.5 227.796875 521.550781 223.199219 522.480469 218.683594 C 537.765625 144.519531 527.773438 84.769531 493.640625 65.097656 C 460.917969 46.238281 407.398438 65.90625 353.347656 112.921875 C 348.019531 117.5625 342.8125 122.339844 337.726562 127.246094 C 334.324219 123.984375 330.859375 120.785156 327.335938 117.652344 C 270.6875 67.378906 213.90625 46.191406 179.8125 65.917969 C 147.117188 84.835938 137.433594 141.003906 151.195312 211.292969 C 152.566406 218.253906 154.113281 225.179688 155.832031 232.0625 C 147.796875 234.34375 140.039062 236.773438 132.617188 239.359375 C 66.203125 262.503906 23.789062 298.773438 23.789062 336.398438 C 23.789062 375.253906 69.320312 414.226562 138.496094 437.859375 C 144.105469 439.769531 149.757812 441.535156 155.457031 443.164062 C 153.605469 450.574219 151.960938 458.039062 150.53125 465.542969 C 137.410156 534.609375 147.65625 589.449219 180.261719 608.25 C 213.941406 627.660156 270.464844 607.710938 325.503906 559.621094 C 329.96875 555.710938 334.332031 551.6875 338.59375 547.5625 C 344.101562 552.875 349.757812 558.03125 355.550781 563.027344 C 408.867188 608.878906 461.519531 627.394531 494.097656 608.546875 C 527.742188 589.078125 538.679688 530.164062 524.480469 458.488281 C 523.363281 452.875 522.109375 447.285156 520.71875 441.730469 C 524.6875 440.554688 528.585938 439.347656 532.382812 438.085938 C 604.296875 414.273438 651.085938 375.773438 651.085938 336.398438 C 651.085938 298.636719 607.304688 262.121094 539.554688 238.8125 Z M 523.957031 412.664062 C 520.527344 413.800781 517.007812 414.894531 513.417969 415.960938 C 505.480469 390.835938 494.765625 364.125 481.65625 336.527344 C 494.167969 309.585938 504.46875 283.214844 512.183594 258.257812 C 518.601562 260.113281 524.828125 262.070312 530.832031 264.136719 C 588.882812 284.109375 624.289062 313.640625 624.289062 336.398438 C 624.289062 360.632812 586.050781 392.097656 523.957031 412.664062 Z M 498.191406 463.691406 C 504.46875 495.382812 505.363281 524.039062 501.207031 546.441406 C 497.472656 566.574219 489.960938 579.992188 480.667969 585.367188 C 460.898438 596.804688 418.625 581.9375 373.03125 542.722656 C 367.640625 538.078125 362.378906 533.28125 357.257812 528.34375 C 374.933594 509.023438 392.597656 486.5625 409.839844 461.613281 C 440.164062 458.925781 468.816406 454.527344 494.796875 448.523438 C 496.046875 453.550781 497.179688 458.609375 498.191406 463.691406 Z M 237.648438 583.390625 C 218.335938 590.207031 202.949219 590.402344 193.652344 585.042969 C 173.863281 573.636719 165.640625 529.605469 176.859375 470.539062 C 178.191406 463.558594 179.71875 456.617188 181.4375 449.722656 C 207.132812 455.40625 235.574219 459.492188 265.972656 461.953125 C 283.332031 486.367188 301.503906 508.804688 319.824219 528.449219 C 315.929688 532.214844 311.945312 535.882812 307.871094 539.453125 C 283.53125 560.714844 259.144531 575.804688 237.648438 583.390625 Z M 147.164062 412.515625 C 116.578125 402.0625 91.316406 388.484375 74.003906 373.664062 C 58.441406 360.347656 50.589844 347.125 50.589844 336.398438 C 50.589844 313.566406 84.640625 284.445312 141.4375 264.652344 C 148.332031 262.253906 155.546875 259.988281 163.03125 257.859375 C 170.882812 283.382812 181.179688 310.066406 193.605469 337.046875 C 181.019531 364.429688 170.574219 391.539062 162.648438 417.363281 C 157.449219 415.875 152.285156 414.257812 147.164062 412.515625 Z M 177.496094 206.144531 C 165.707031 145.925781 173.535156 100.503906 193.242188 89.101562 C 214.226562 76.957031 260.628906 94.269531 309.542969 137.679688 C 312.734375 140.519531 315.871094 143.414062 318.953125 146.363281 C 300.730469 165.925781 282.71875 188.195312 265.515625 212.460938 C 236.015625 215.195312 207.773438 219.585938 181.808594 225.464844 C 180.210938 219.0625 178.773438 212.621094 177.496094 206.148438 Z M 448.085938 272.929688 C 441.953125 262.34375 435.59375 251.886719 429.007812 241.574219 C 449.023438 244.101562 468.199219 247.460938 486.207031 251.566406 C 480.800781 268.886719 474.0625 286.992188 466.132812 305.558594 C 460.335938 294.5625 454.316406 283.6875 448.085938 272.929688 Z M 337.738281 165.507812 C 350.097656 178.890625 362.480469 193.832031 374.652344 210.046875 C 349.953125 208.882812 325.214844 208.875 300.511719 210.03125 C 312.703125 193.96875 325.1875 179.046875 337.738281 165.507812 Z M 226.6875 273.113281 C 220.53125 283.78125 214.625 294.59375 208.976562 305.535156 C 201.175781 287.039062 194.496094 268.847656 189.046875 251.28125 C 206.941406 247.28125 226.027344 244.007812 245.917969 241.523438 C 239.257812 251.902344 232.847656 262.433594 226.6875 273.113281 Z M 246.488281 433.175781 C 225.941406 430.882812 206.566406 427.777344 188.675781 423.882812 C 194.214844 406.003906 201.039062 387.429688 209.007812 368.53125 C 214.679688 379.484375 220.609375 390.300781 226.792969 400.976562 C 233.148438 411.945312 239.730469 422.695312 246.488281 433.175781 Z M 338.480469 509.171875 C 325.777344 495.476562 313.109375 480.324219 300.734375 464.027344 C 312.746094 464.496094 324.992188 464.738281 337.4375 464.738281 C 350.222656 464.738281 362.863281 464.449219 375.304688 463.898438 C 363.089844 480.488281 350.753906 495.664062 338.480469 509.171875 Z M 466.382812 367.566406 C 474.769531 386.671875 481.835938 405.152344 487.449219 422.722656 C 469.261719 426.871094 449.625 430.214844 428.933594 432.695312 C 435.5625 422.1875 441.984375 411.550781 448.191406 400.792969 C 454.5 389.851562 460.566406 378.777344 466.382812 367.566406 Z M 424.976562 387.410156 C 415.476562 403.90625 405.4375 420.09375 394.882812 435.9375 C 375.765625 437.292969 356.605469 437.964844 337.4375 437.953125 C 317.917969 437.953125 298.925781 437.347656 280.644531 436.164062 C 269.8125 420.351562 259.585938 404.136719 249.980469 387.554688 L 249.984375 387.554688 C 240.425781 371.0625 231.496094 354.207031 223.21875 337.035156 C 231.476562 319.859375 240.378906 303 249.902344 286.492188 L 249.898438 286.492188 C 259.421875 269.984375 269.570312 253.835938 280.316406 238.09375 C 298.972656 236.683594 318.101562 235.949219 337.433594 235.949219 L 337.4375 235.949219 C 356.859375 235.949219 376.015625 236.691406 394.664062 238.113281 C 405.304688 253.832031 415.386719 269.921875 424.890625 286.351562 C 434.445312 302.820312 443.464844 319.597656 451.933594 336.65625 C 443.554688 353.886719 434.5625 370.816406 424.976562 387.410156 Z M 480.257812 88.300781 C 501.261719 100.410156 509.433594 149.242188 496.234375 213.277344 C 495.390625 217.359375 494.445312 221.523438 493.417969 225.742188 C 467.390625 219.738281 439.128906 215.269531 409.539062 212.496094 C 392.304688 187.964844 374.445312 165.65625 356.515625 146.347656 C 361.214844 141.820312 366.023438 137.410156 370.941406 133.121094 C 417.253906 92.839844 460.539062 76.9375 480.257812 88.300781 Z M 337.4375 280.40625 C 368.375 280.40625 393.453125 305.476562 393.453125 336.398438 C 393.453125 367.316406 368.375 392.386719 337.4375 392.386719 C 306.503906 392.386719 281.421875 367.316406 281.421875 336.398438 C 281.421875 305.476562 306.503906 280.40625 337.4375 280.40625 Z M 337.4375 280.40625 " fill-opacity="1" fill-rule="nonzero"/></g></svg>