<svg xmlns="http://www.w3.org/2000/svg" xmlns:xlink="http://www.w3.org/1999/xlink" width="900" zoomAndPan="magnify" viewBox="0 0 675 675.000002" height="900" preserveAspectRatio="xMidYMid meet" version="1.0"><defs><clipPath id="a91c13e32e"><path d="M 44.964844 44.464844 L 629.851562 44.464844 L 629.851562 629.351562 L 44.964844 629.351562 Z M 44.964844 44.464844 " clip-rule="nonzero"/></clipPath></defs><g clip-path="url(#a91c13e32e)"><path fill="#007acc" d="M 44.964844 629.351562 L 629.851562 629.351562 L 629.851562 44.464844 L 44.964844 44.464844 Z M 44.964844 629.351562 " fill-opacity="1" fill-rule="nonzero"/></g><path fill="#ffffff" d="M 174.28125 338.828125 L 174.097656 362.792969 L 250.222656 362.792969 L 250.222656 579.109375 L 304.070312 579.109375 L 304.070312 362.792969 L 380.199219 362.792969 L 380.199219 339.308594 C 380.199219 326.308594 379.921875 315.433594 379.550781 315.15625 C 379.273438 314.792969 332.945312 314.609375 276.773438 314.703125 L 174.554688 314.976562 Z M 174.28125 338.828125 " fill-opacity="1" fill-rule="nonzero"/><path fill="#ffffff" d="M 516.917969 314.3125 C 531.765625 318.015625 543.097656 324.617188 553.496094 335.378906 C 558.863281 341.136719 566.859375 351.621094 567.5 354.136719 C 567.683594 354.890625 542.253906 371.957031 526.832031 381.527344 C 526.285156 381.894531 524.066406 379.472656 521.554688 375.769531 C 514.039062 364.804688 506.132812 360.074219 494.070312 359.253906 C 476.339844 358.042969 464.917969 367.316406 465.007812 382.832031 C 465.007812 387.378906 465.671875 390.074219 467.523438 393.773438 C 471.429688 401.863281 478.671875 406.683594 501.402344 416.53125 C 543.28125 434.535156 561.195312 446.414062 572.34375 463.320312 C 584.773438 482.167969 587.558594 512.238281 579.105469 534.605469 C 569.832031 558.9375 546.800781 575.453125 514.402344 580.9375 C 504.375 582.695312 480.613281 582.421875 469.828125 580.480469 C 446.34375 576.300781 424.066406 564.691406 410.335938 549.476562 C 404.945312 543.535156 394.457031 528.023438 395.097656 526.902344 C 395.394531 526.539062 397.792969 525.054688 400.488281 523.476562 C 403.09375 521.992188 412.941406 516.324219 422.214844 510.933594 L 439.007812 501.203125 L 442.550781 506.386719 C 447.460938 513.90625 458.246094 524.207031 464.734375 527.660156 C 483.398438 537.484375 509.011719 536.089844 521.644531 524.78125 C 527.039062 519.84375 529.253906 514.75 529.253906 507.234375 C 529.253906 500.449219 528.433594 497.476562 524.890625 492.382812 C 520.34375 485.871094 511.066406 480.386719 484.703125 468.988281 C 454.523438 455.988281 441.523438 447.898438 429.640625 435.082031 C 422.765625 427.65625 416.277344 415.777344 413.578125 405.839844 C 411.339844 397.589844 410.792969 376.890625 412.550781 368.527344 C 418.789062 339.375 440.789062 319.042969 472.523438 313.011719 C 482.828125 311.070312 506.796875 311.800781 516.917969 314.3125 Z M 516.917969 314.3125 " fill-opacity="1" fill-rule="nonzero"/></svg>